<svg width="28" height="28" viewBox="0 0 28 28" fill="none" xmlns="http://www.w3.org/2000/svg">
<path d="M6.66667 0C2.99244 0 0 2.99244 0 6.66666V21.3333C0 25.0075 2.99244 28 6.66667 28H21.3333C25.0076 28 28 25.0075 28 21.3333V6.66666C28 2.99244 25.0076 0 21.3333 0H6.66667ZM6 8H22C22.12 8 22.2332 8.01354 22.3398 8.04687L15.7865 14.5937C14.7998 15.5804 13.1937 15.5804 12.207 14.5937L5.66016 8.04687C5.76682 8.01354 5.88 8 6 8ZM4.71354 8.99349L9.72656 14L4.71354 19.0065C4.68021 18.8998 4.66667 18.7867 4.66667 18.6667V9.33333C4.66667 9.21333 4.68021 9.10015 4.71354 8.99349ZM23.2865 8.99349C23.3198 9.10015 23.3333 9.21333 23.3333 9.33333V18.6667C23.3333 18.7867 23.3198 18.8998 23.2865 19.0065L18.2669 14L23.2865 8.99349ZM10.6667 14.9401L11.2604 15.5404C12.0138 16.2937 13.0068 16.6667 13.9935 16.6667C14.9868 16.6667 15.9732 16.2937 16.7266 15.5404L17.3268 14.9401L22.3398 19.9531C22.2332 19.9865 22.12 20 22 20H6C5.88 20 5.76682 19.9865 5.66016 19.9531L10.6667 14.9401Z" fill="#F1502F"/>
</svg>
