<svg width="28" height="28" viewBox="0 0 28 28" fill="none" xmlns="http://www.w3.org/2000/svg">
<path d="M14 0C6.2685 0 0 6.2685 0 14C0 21.7315 6.2685 28 14 28C21.7315 28 28 21.7315 28 14C28 6.2685 21.7315 0 14 0ZM8.74533 6.3035C9.72767 6.3035 10.3822 6.958 10.3822 7.83066C10.3822 8.70333 9.72767 9.35783 8.63683 9.35783C7.6545 9.359 7 8.70333 7 7.83066C7 6.958 7.6545 6.3035 8.74533 6.3035ZM10.5 19.8333H7V10.5H10.5V19.8333ZM22.1667 19.8333H18.872V14.7327C18.872 13.3222 17.9935 12.9967 17.6645 12.9967C17.3355 12.9967 16.2365 13.2137 16.2365 14.7327C16.2365 14.9497 16.2365 19.8333 16.2365 19.8333H12.8333V10.5H16.2377V11.802C16.6763 11.0425 17.5548 10.5 19.2022 10.5C20.8495 10.5 22.1667 11.802 22.1667 14.7327V19.8333Z" fill="#F1502F"/>
</svg>
