<svg width="277" height="44" viewBox="0 0 277 44" fill="none" xmlns="http://www.w3.org/2000/svg">
<path d="M34.56 33.264H26.832L26.256 20.256C26.096 17.152 26.016 14.384 26.016 11.952C26.016 10.096 26.064 8.336 26.16 6.672L21.024 29.76H13.584L8.112 6.672C8.304 9.456 8.4 12.08 8.4 14.544C8.4 16.4 8.352 18.336 8.256 20.352L7.68 33.264H0L2.496 0H12.432L17.424 22.56L22.08 0H32.064L34.56 33.264Z" fill="white"/>
<path d="M50.1664 6.96C54.0704 6.96 57.1264 8.16 59.3344 10.56C61.5424 12.928 62.6464 16.256 62.6464 20.544C62.6464 23.264 62.1344 25.648 61.1104 27.696C60.1184 29.712 58.6784 31.28 56.7904 32.4C54.9344 33.52 52.7264 34.08 50.1664 34.08C46.2944 34.08 43.2384 32.896 40.9984 30.528C38.7904 28.128 37.6864 24.784 37.6864 20.496C37.6864 17.776 38.1824 15.408 39.1744 13.392C40.1984 11.344 41.6384 9.76 43.4944 8.64C45.3824 7.52 47.6064 6.96 50.1664 6.96ZM50.1664 12.528C48.6304 12.528 47.4784 13.184 46.7104 14.496C45.9424 15.776 45.5584 17.776 45.5584 20.496C45.5584 23.28 45.9264 25.312 46.6624 26.592C47.4304 27.872 48.5984 28.512 50.1664 28.512C51.7024 28.512 52.8544 27.872 53.6224 26.592C54.3904 25.28 54.7744 23.264 54.7744 20.544C54.7744 17.76 54.3904 15.728 53.6224 14.448C52.8864 13.168 51.7344 12.528 50.1664 12.528Z" fill="white"/>
<path d="M88.6616 33.264H82.0856L81.7496 30.048C79.8936 32.736 77.3176 34.08 74.0216 34.08C71.6856 34.08 69.9096 33.376 68.6936 31.968C67.5096 30.56 66.9176 28.592 66.9176 26.064V7.776H74.5016V25.104C74.5016 26.352 74.6936 27.232 75.0776 27.744C75.4936 28.224 76.1176 28.464 76.9496 28.464C78.5496 28.464 79.9256 27.472 81.0776 25.488V7.776H88.6616V33.264Z" fill="white"/>
<path d="M108.45 7.056C109.378 7.056 110.226 7.168 110.994 7.392L109.794 14.736C108.834 14.512 108.066 14.4 107.49 14.4C105.986 14.4 104.834 14.928 104.034 15.984C103.266 17.008 102.658 18.56 102.21 20.64V33.264H94.6264V7.776H101.25L101.874 12.72C102.45 10.96 103.314 9.584 104.466 8.592C105.65 7.568 106.978 7.056 108.45 7.056Z" fill="white"/>
<path d="M132.46 25.872C132.46 26.832 132.588 27.536 132.844 27.984C133.132 28.432 133.581 28.768 134.189 28.992L132.605 33.936C131.037 33.808 129.756 33.472 128.764 32.928C127.772 32.352 127.005 31.456 126.461 30.24C124.797 32.8 122.237 34.08 118.781 34.08C116.253 34.08 114.236 33.344 112.732 31.872C111.228 30.4 110.477 28.48 110.477 26.112C110.477 23.328 111.5 21.2 113.549 19.728C115.597 18.256 118.556 17.52 122.428 17.52H125.021V16.416C125.021 14.912 124.701 13.888 124.061 13.344C123.421 12.768 122.301 12.48 120.701 12.48C119.869 12.48 118.86 12.608 117.676 12.864C116.492 13.088 115.277 13.408 114.029 13.824L112.3 8.832C113.9 8.224 115.533 7.76 117.197 7.44C118.893 7.12 120.46 6.96 121.9 6.96C125.548 6.96 128.221 7.712 129.917 9.216C131.613 10.72 132.46 12.976 132.46 15.984V25.872ZM120.989 28.656C122.717 28.656 124.061 27.84 125.021 26.208V21.696H123.148C121.42 21.696 120.124 22 119.26 22.608C118.428 23.216 118.012 24.16 118.012 25.44C118.012 26.464 118.269 27.264 118.781 27.84C119.325 28.384 120.061 28.656 120.989 28.656Z" fill="white"/>
<path d="M160.98 20.544H157.908V33.264H150.036V0H160.932C165.476 0 168.884 0.832 171.156 2.496C173.46 4.16 174.612 6.704 174.612 10.128C174.612 12.272 174.1 14.064 173.076 15.504C172.052 16.912 170.436 18.112 168.228 19.104L176.676 33.264H167.796L160.98 20.544ZM157.908 15.12H161.22C162.98 15.12 164.292 14.72 165.156 13.92C166.052 13.12 166.5 11.856 166.5 10.128C166.5 8.528 166.02 7.36 165.06 6.624C164.132 5.888 162.692 5.52 160.74 5.52H157.908V15.12Z" fill="white"/>
<path d="M201.038 20.016C201.038 21.072 200.99 21.984 200.894 22.752H185.102C185.358 24.896 185.966 26.4 186.926 27.264C187.886 28.128 189.214 28.56 190.91 28.56C191.934 28.56 192.926 28.384 193.886 28.032C194.846 27.648 195.886 27.072 197.006 26.304L200.126 30.528C197.15 32.896 193.838 34.08 190.19 34.08C186.062 34.08 182.894 32.864 180.686 30.432C178.478 28 177.374 24.736 177.374 20.64C177.374 18.048 177.838 15.728 178.766 13.68C179.694 11.6 181.054 9.968 182.846 8.784C184.638 7.568 186.782 6.96 189.278 6.96C192.958 6.96 195.838 8.112 197.918 10.416C199.998 12.72 201.038 15.92 201.038 20.016ZM193.598 17.856C193.534 13.952 192.158 12 189.47 12C188.158 12 187.134 12.48 186.398 13.44C185.694 14.4 185.262 15.984 185.102 18.192H193.598V17.856Z" fill="white"/>
<path d="M228.77 9.264C227.106 9.936 224.658 10.272 221.426 10.272C223.09 10.976 224.306 11.84 225.074 12.864C225.842 13.888 226.226 15.216 226.226 16.848C226.226 18.48 225.794 19.952 224.93 21.264C224.066 22.544 222.818 23.552 221.186 24.288C219.586 25.024 217.698 25.392 215.522 25.392C214.498 25.392 213.522 25.296 212.594 25.104C212.338 25.232 212.13 25.44 211.97 25.728C211.842 25.984 211.778 26.256 211.778 26.544C211.778 27.024 211.954 27.408 212.306 27.696C212.69 27.952 213.442 28.08 214.562 28.08H218.402C220.354 28.08 222.066 28.4 223.538 29.04C225.01 29.68 226.146 30.56 226.946 31.68C227.746 32.8 228.146 34.064 228.146 35.472C228.146 38.128 226.994 40.192 224.69 41.664C222.418 43.168 219.122 43.92 214.802 43.92C211.698 43.92 209.25 43.584 207.458 42.912C205.666 42.272 204.402 41.36 203.666 40.176C202.962 38.992 202.61 37.504 202.61 35.712H209.426C209.426 36.48 209.57 37.088 209.858 37.536C210.178 37.984 210.738 38.32 211.538 38.544C212.338 38.768 213.49 38.88 214.994 38.88C217.074 38.88 218.514 38.624 219.314 38.112C220.114 37.632 220.514 36.928 220.514 36C220.514 35.232 220.21 34.624 219.602 34.176C218.994 33.728 218.082 33.504 216.866 33.504H213.17C210.546 33.504 208.578 33.04 207.266 32.112C205.986 31.152 205.346 29.936 205.346 28.464C205.346 27.536 205.618 26.64 206.162 25.776C206.706 24.88 207.442 24.144 208.37 23.568C206.77 22.704 205.602 21.696 204.866 20.544C204.162 19.36 203.81 17.936 203.81 16.272C203.81 13.424 204.834 11.168 206.882 9.504C208.93 7.808 211.634 6.96 214.994 6.96C217.554 7.024 219.714 6.768 221.474 6.192C223.266 5.616 225.106 4.768 226.994 3.648L228.77 9.264ZM215.186 11.952C214.002 11.952 213.058 12.336 212.354 13.104C211.682 13.84 211.346 14.864 211.346 16.176C211.346 17.552 211.682 18.624 212.354 19.392C213.058 20.128 214.002 20.496 215.186 20.496C216.434 20.496 217.378 20.128 218.018 19.392C218.69 18.656 219.026 17.552 219.026 16.08C219.026 13.328 217.746 11.952 215.186 11.952Z" fill="white"/>
<path d="M252.882 20.016C252.882 21.072 252.834 21.984 252.738 22.752H236.946C237.202 24.896 237.81 26.4 238.77 27.264C239.73 28.128 241.058 28.56 242.754 28.56C243.778 28.56 244.77 28.384 245.73 28.032C246.69 27.648 247.73 27.072 248.85 26.304L251.97 30.528C248.994 32.896 245.682 34.08 242.034 34.08C237.906 34.08 234.738 32.864 232.53 30.432C230.322 28 229.218 24.736 229.218 20.64C229.218 18.048 229.682 15.728 230.61 13.68C231.538 11.6 232.898 9.968 234.69 8.784C236.482 7.568 238.626 6.96 241.122 6.96C244.802 6.96 247.682 8.112 249.762 10.416C251.842 12.72 252.882 15.92 252.882 20.016ZM245.442 17.856C245.378 13.952 244.002 12 241.314 12C240.002 12 238.978 12.48 238.242 13.44C237.538 14.4 237.106 15.984 236.946 18.192H245.442V17.856Z" fill="white"/>
<path d="M266.118 6.96C267.942 6.96 269.654 7.232 271.254 7.776C272.854 8.32 274.262 9.088 275.478 10.08L272.694 14.352C270.614 13.04 268.518 12.384 266.406 12.384C265.414 12.384 264.646 12.56 264.102 12.912C263.59 13.232 263.334 13.696 263.334 14.304C263.334 14.784 263.446 15.184 263.67 15.504C263.926 15.792 264.422 16.096 265.158 16.416C265.894 16.736 267.03 17.12 268.566 17.568C271.222 18.336 273.19 19.344 274.47 20.592C275.782 21.808 276.438 23.504 276.438 25.68C276.438 27.408 275.942 28.912 274.95 30.192C273.958 31.44 272.598 32.4 270.87 33.072C269.142 33.744 267.222 34.08 265.11 34.08C262.966 34.08 260.966 33.744 259.11 33.072C257.286 32.4 255.734 31.472 254.454 30.288L258.15 26.16C260.294 27.824 262.55 28.656 264.918 28.656C266.07 28.656 266.966 28.448 267.606 28.032C268.278 27.616 268.614 27.024 268.614 26.256C268.614 25.648 268.486 25.168 268.23 24.816C267.974 24.464 267.478 24.144 266.742 23.856C266.006 23.536 264.838 23.152 263.238 22.704C260.71 21.968 258.822 20.944 257.574 19.632C256.326 18.32 255.702 16.688 255.702 14.736C255.702 13.264 256.118 11.952 256.95 10.8C257.814 9.616 259.03 8.688 260.598 8.016C262.198 7.312 264.038 6.96 266.118 6.96Z" fill="white"/>
</svg>
